<?xml version="1.0" encoding="utf-8"?>
<!-- Generator: Adobe Illustrator 18.1.1, SVG Export Plug-In . SVG Version: 6.00 Build 0)  -->
<svg version="1.1" id="Layer_1" xmlns="http://www.w3.org/2000/svg" xmlns:xlink="http://www.w3.org/1999/xlink" x="0px" y="0px"
	 viewBox="904.8 498.5 110 85.5" enable-background="new 904.8 498.5 110 85.5" xml:space="preserve">
<path d="M908.9,528.7l22.3,17l-20.7,5.5l-5.7-21.4L908.9,528.7z M1006.3,551v9l-17.4-3.9c-0.6-2-2.2-3.6-4.3-4.1l-4-14.2l17.4-4.7
	c5.7-1.5,9.1-7.4,7.6-13.2l-3.6-13.5c-1.5-5.7-7.4-9.1-13.2-7.6l-83.2,22.3l34.7,27.4l34.8-9.3l4,14.3c-1.1,1.1-1.8,2.6-1.8,4.2
	c0,3.3,2.6,5.9,5.9,5.9c1.8,0,3.3-0.8,4.4-2l18.7,4.2v9.3c0,5.9,2.5,8.9,8.5,8.9v-42.3C1008.9,541.7,1006.3,545,1006.3,551z"/>
</svg>
