<?xml version="1.0" encoding="utf-8"?>
<!-- Generator: Adobe Illustrator 18.1.1, SVG Export Plug-In . SVG Version: 6.00 Build 0)  -->
<svg version="1.1" id="Layer_1" xmlns="http://www.w3.org/2000/svg" xmlns:xlink="http://www.w3.org/1999/xlink" x="0px" y="0px"
	 viewBox="0 29.7 100 34.6" enable-background="new 0 29.7 100 34.6" xml:space="preserve">
<g>
	<g>
		<defs>
			<rect id="SVGID_1_" y="29.7" width="34.6" height="34.6"/>
		</defs>
		<clipPath id="SVGID_2_">
			<use xlink:href="#SVGID_1_"  overflow="visible"/>
		</clipPath>
		<g clip-path="url(#SVGID_2_)">
			<defs>
				<rect id="SVGID_3_" y="29.7" width="34.6" height="34.6"/>
			</defs>
			<clipPath id="SVGID_4_">
				<use xlink:href="#SVGID_3_"  overflow="visible"/>
			</clipPath>
			<path clip-path="url(#SVGID_4_)" fill="#010101" d="M30.9,59.9c0-0.1-0.4-3-0.4-3c0,0-0.7-1.9-1.9-2.1c-1.2-0.2-2.7-0.6-3.3-1.1
				c-0.4-0.3-1.6-0.8-2.1-1c-0.3-0.1-0.7-0.9-0.9-1.2c-0.2-0.3-1.2-1-1.5-1.1l0-1.4l3.1-1c0,0,0.8-0.4,0.9-0.4
				c0.1,0-0.4-0.6-0.4-0.7c-0.1-0.2-0.3-1.2-0.3-1.2s1,1.3,1.6,1.5c0,0-1-1.9-1.3-3c-0.3-1.1-0.5-2.8-0.5-2.9c0-0.2-0.6-4.7-1-5.4
				c-0.3-0.8-0.8-1.8-1.6-2.3c-0.8-0.5-2-1.2-3.7-1.3c0,0-0.1,0-0.1,0c0,0-0.1,0-0.1,0c-1.7,0.1-2.9,0.8-3.7,1.3
				c-0.8,0.5-1.3,1.5-1.6,2.3c-0.3,0.8-1,5.3-1,5.4c0,0.2-0.2,1.9-0.5,3C10.1,45.4,9,47.2,9,47.2c0.5-0.2,1.6-1.5,1.6-1.5
				s-0.4,1.2-0.4,1.3c-0.1,0.2-0.4,0.6-0.3,0.6c0.1,0,0.9,0.4,0.9,0.4l3.1,1l0,1.4c-0.3,0-1.3,0.7-1.5,1.1c-0.2,0.3-0.6,1.1-0.9,1.2
				c-0.6,0.2-1.8,0.7-2.1,1c-0.6,0.5-2.1,0.9-3.3,1.1C4.7,55,4,56.7,4,56.7c0,0.1-0.4,3.1-0.4,3.2H30.9z"/>
		</g>
	</g>
</g>
<g>
	<g>
		<defs>
			<rect id="SVGID_5_" x="64.6" y="31.3" width="35.4" height="35.4"/>
		</defs>
		<clipPath id="SVGID_6_">
			<use xlink:href="#SVGID_5_"  overflow="visible"/>
		</clipPath>
		<g clip-path="url(#SVGID_6_)">
			<defs>
				<rect id="SVGID_7_" x="64.6" y="31.3" width="35.4" height="35.4"/>
			</defs>
			<clipPath id="SVGID_8_">
				<use xlink:href="#SVGID_7_"  overflow="visible"/>
			</clipPath>
			<path clip-path="url(#SVGID_8_)" d="M86,49.1c0,0-0.2-1.4,0-2.2c2-1.7,2.2-3.8,2.1-9c-0.1-4.7-3.5-5.9-5.8-5.9s-5.7,1.2-5.8,5.9
				c-0.1,5.3,0.1,7.3,2.1,9c0.2,0.7,0,2.2,0,2.2s-10.4,2.2-10.4,6.7v3.1h14.2h14.2v-3.1C96.5,51.4,86,49.1,86,49.1"/>
		</g>
	</g>
</g>
<g>
	<g>
		<defs>
			<rect id="SVGID_9_" x="45.4" y="31.7" width="10.6" height="16.9"/>
		</defs>
		<clipPath id="SVGID_10_">
			<use xlink:href="#SVGID_9_"  overflow="visible"/>
		</clipPath>
		<g clip-path="url(#SVGID_10_)">
			<defs>
				<rect id="SVGID_11_" x="45.4" y="31.7" width="10.6" height="16.9"/>
			</defs>
			<clipPath id="SVGID_12_">
				<use xlink:href="#SVGID_11_"  overflow="visible"/>
			</clipPath>
			<path clip-path="url(#SVGID_12_)" d="M49.4,41.1L48,47.3h0.7l0.4-1.8h3.3l0.4,1.8h0.7L52,41.1c1.7-0.5,2.9-2.1,2.9-4
				c0-2.3-1.9-4.2-4.2-4.2c-2.3,0-4.2,1.9-4.2,4.2C46.5,39,47.8,40.5,49.4,41.1 M52.2,45h-3l0.3-1.3h2.4L52.2,45z M50.7,36
				c-0.6,0-1,0.4-1,1c0,0.4,0.2,0.7,0.5,0.8l-0.3,1.3c-0.8-0.3-1.4-1.1-1.4-2c0-1.2,1-2.2,2.2-2.2s2.2,1,2.2,2.2
				c0,0.9-0.6,1.7-1.4,2l-0.3-1.3c0.3-0.2,0.5-0.5,0.5-0.8C51.7,36.4,51.3,36,50.7,36 M50.7,40c0.1,0,0.2,0,0.3,0l0.1,0.6
				c-0.2,0-0.3,0-0.5,0s-0.3,0-0.5,0l0.1-0.6C50.5,40,50.6,40,50.7,40 M50.5,39.3l0.2-0.8l0.2,0.8c-0.1,0-0.1,0-0.2,0
				C50.7,39.3,50.6,39.3,50.5,39.3 M50.1,41.2c0.2,0,0.4,0,0.6,0c0.2,0,0.4,0,0.6,0l0.4,1.8l-2.1,0L50.1,41.2z M50.7,33.6
				c1.9,0,3.5,1.6,3.5,3.5c0,1.5-1,2.8-2.4,3.3l-0.1-0.6c1.1-0.4,1.9-1.5,1.9-2.7c0-1.6-1.3-2.9-2.9-2.9s-2.9,1.3-2.9,2.9
				c0,1.2,0.8,2.3,1.9,2.7l-0.1,0.6c-1.4-0.5-2.4-1.8-2.4-3.3C47.2,35.2,48.8,33.6,50.7,33.6"/>
		</g>
	</g>
</g>
<g>
	<g>
		<defs>
			<rect id="SVGID_13_" x="61.8" y="31.7" width="9.1" height="14.1"/>
		</defs>
		<clipPath id="SVGID_14_">
			<use xlink:href="#SVGID_13_"  overflow="visible"/>
		</clipPath>
		<g clip-path="url(#SVGID_14_)">
			<defs>
				<rect id="SVGID_15_" x="61.8" y="31.7" width="9.1" height="14.1"/>
			</defs>
			<clipPath id="SVGID_16_">
				<use xlink:href="#SVGID_15_"  overflow="visible"/>
			</clipPath>
			<path clip-path="url(#SVGID_16_)" d="M69.1,32.2h-5.5c-0.6,0-1.1,0.5-1.1,1.1v10.7c0,0.6,0.5,1.1,1.1,1.1h5.5
				c0.6,0,1.1-0.5,1.1-1.1V33.4C70.2,32.8,69.7,32.2,69.1,32.2 M65.1,43.9h-1.3v-0.2h1.3V43.9z M66.3,44.4c-0.3,0-0.6-0.3-0.6-0.6
				c0-0.3,0.3-0.6,0.6-0.6c0.3,0,0.6,0.3,0.6,0.6C66.9,44.1,66.7,44.4,66.3,44.4 M68.9,43.9h-1.3v-0.2h1.3V43.9z M68.9,42.2h-5.2
				v-8.3h5.2V42.2z"/>
		</g>
	</g>
</g>
<g>
	<g>
		<defs>
			<rect id="SVGID_17_" x="29.7" y="31.7" width="9.1" height="14.6"/>
		</defs>
		<clipPath id="SVGID_18_">
			<use xlink:href="#SVGID_17_"  overflow="visible"/>
		</clipPath>
		<g clip-path="url(#SVGID_18_)">
			<defs>
				<rect id="SVGID_19_" x="29.7" y="31.7" width="9.1" height="14.6"/>
			</defs>
			<clipPath id="SVGID_20_">
				<use xlink:href="#SVGID_19_"  overflow="visible"/>
			</clipPath>
			<path clip-path="url(#SVGID_20_)" d="M37.2,32.8h-6c-0.3,0-0.5,0.2-0.5,0.5v11.6c0,0.3,0.2,0.5,0.5,0.5h6c0.3,0,0.5-0.2,0.5-0.5
				V33.3C37.7,33,37.5,32.8,37.2,32.8 M34.2,44.8c-0.2,0-0.4-0.2-0.4-0.4s0.2-0.4,0.4-0.4s0.4,0.2,0.4,0.4S34.4,44.8,34.2,44.8
				 M37,43.1h-5.5v-7.9H37L37,43.1L37,43.1z"/>
		</g>
	</g>
</g>
</svg>
