<?xml version="1.0" encoding="utf-8"?>
<!-- Generator: Adobe Illustrator 18.1.1, SVG Export Plug-In . SVG Version: 6.00 Build 0)  -->
<svg version="1.1" id="Layer_1" xmlns="http://www.w3.org/2000/svg" xmlns:xlink="http://www.w3.org/1999/xlink" x="0px" y="0px"
	 viewBox="0 29.7 85.8 35.2" enable-background="new 0 29.7 85.8 35.2" xml:space="preserve">
<g>
	<path d="M9.3,29.7v34.6H7.8V29.7H0v34.6h26.9V29.7H9.3z M5.3,60.7h-2v-1.5h2V60.7z M5.3,54.9h-2v-1.5h2V54.9z M5.3,49.2h-2v-1.5h2
		V49.2z M5.3,43.5h-2v-1.5h2V43.5z M4.3,37.1c-1,0-1.8-0.8-1.8-1.8c0-1,0.8-1.8,1.8-1.8S6,34.4,6,35.4S5.2,37.1,4.3,37.1z
		 M23.5,58.8H12.1v-4.6h11.5V58.8z M23.5,48.5H12.1v-4.6h11.5V48.5z M23.5,38.1H12.1v-4.6h11.5V38.1z"/>
</g>
<g>
	<path d="M38.9,30.3v34.6h-1.5V30.3h-7.8v34.6h26.9V30.3H38.9z M34.9,61.4h-2v-1.5h2V61.4z M34.9,55.6h-2V54h2V55.6z M34.9,49.8h-2
		v-1.5h2V49.8z M34.9,44.1h-2v-1.5h2V44.1z M33.8,37.8c-1,0-1.8-0.8-1.8-1.8c0-1,0.8-1.8,1.8-1.8s1.8,0.8,1.8,1.8
		S34.8,37.8,33.8,37.8z M53.1,59.4H41.6v-4.6h11.5V59.4z M53.1,49.1H41.6v-4.6h11.5V49.1z M53.1,38.7H41.6v-4.6h11.5V38.7z"/>
</g>
<g>
	<path d="M76.4,64.9V30.3H78v34.6h7.8V30.3H58.9v34.6H76.4z M80.5,33.9h2v1.5h-2V33.9z M80.5,39.7h2v1.5h-2V39.7z M80.5,45.4h2V47
		h-2V45.4z M80.5,51.1h2v1.5h-2V51.1z M81.5,57.5c1,0,1.8,0.8,1.8,1.8c0,1-0.8,1.8-1.8,1.8s-1.8-0.8-1.8-1.8S80.6,57.5,81.5,57.5z
		 M62.3,35.8h11.5v4.6H62.3V35.8z M62.3,46.1h11.5v4.6H62.3V46.1z M62.3,56.5h11.5v4.6H62.3V56.5z"/>
</g>
</svg>
