<?xml version="1.0" encoding="utf-8"?>
<!-- Generator: Adobe Illustrator 18.1.1, SVG Export Plug-In . SVG Version: 6.00 Build 0)  -->
<svg version="1.1" xmlns="http://www.w3.org/2000/svg" xmlns:xlink="http://www.w3.org/1999/xlink" x="0px" y="0px"
	 viewBox="0 0 244.1 158.3" enable-background="new 0 0 244.1 158.3" xml:space="preserve">
<g id="Layer_10">
	<path fill="#010101" d="M178.3,141.5c0.1-0.3-1.8-13.9-1.8-14.2c0,0-3.5-8.8-8.9-9.7c-5.5-0.9-12.5-2.8-15.4-5
		c-1.7-1.3-7.3-3.6-9.9-4.5c-1.2-0.4-3.3-4-4-5.6c-0.7-1.6-5.7-4.9-6.9-5.1l-0.2-6.7l14.3-4.4c0,0,3.7-1.7,4-1.7
		c0.4,0-1.7-2.7-2-3.4c-0.3-0.7-1.6-5.6-1.6-5.6s4.8,5.9,7.3,7c0,0-4.8-9-6.2-14c-1.4-5-2.4-12.9-2.4-13.6c0-0.7-3-21.8-4.6-25.3
		c-1.6-3.5-3.8-8.3-7.6-10.6c-3.8-2.3-9.3-5.7-17.3-6.1c-0.1,0-0.2,0-0.4,0c-0.1,0-0.2,0-0.4,0c-8,0.4-13.5,3.8-17.3,6.1
		c-3.7,2.3-5.9,7.1-7.6,10.6c-1.6,3.5-4.6,24.6-4.6,25.3c0,0.7-0.8,8.9-2.3,13.9c-1.4,5-6.3,13.7-6.3,13.7c2.4-1.1,7.3-7,7.3-7
		s-1.7,5.4-2,6.1c-0.3,0.7-1.9,3-1.6,3c0.4,0,4,1.7,4,1.7l14.3,4.4l-0.2,6.7c-1.3,0.2-6.2,3.5-6.9,5.1c-0.7,1.6-2.8,5.2-4,5.6
		c-2.6,0.9-8.2,3.2-9.9,4.5c-2.9,2.2-10,4.1-15.4,5c-5.5,0.9-8.9,9.1-8.9,9.1c0,0.3-1.9,14.5-1.8,14.8H178.3z"/>
</g>
<g id="Layer_1">
</g>
<g id="Layer_2">
</g>
<g id="Layer_3">
</g>
<g id="Layer_4">
</g>
<g id="Layer_5">
</g>
<g id="Layer_6">
</g>
<g id="Layer_7">
</g>
<g id="Layer_8">
</g>
<g id="Layer_9">
</g>
</svg>
